<?xml version="1.0" standalone="no"?>
<!DOCTYPE svg PUBLIC "-//W3C//DTD SVG 20010904//EN"
 "http://www.w3.org/TR/2001/REC-SVG-20010904/DTD/svg10.dtd">
<svg version="1.0" xmlns="http://www.w3.org/2000/svg"
 width="100.000000pt" height="100.000000pt" viewBox="0 0 100.000000 100.000000"
 preserveAspectRatio="xMidYMid meet">

<g transform="translate(0.000000,100.000000) scale(0.100000,-0.100000)"
fill="#000000" stroke="none">
<path d="M401 985 c-80 -25 -127 -88 -185 -248 -15 -40 -25 -51 -66 -72 -92
-46 -157 -145 -148 -222 3 -24 9 -28 48 -35 62 -11 89 -41 100 -114 12 -86 16
-92 80 -115 67 -24 89 -42 121 -99 31 -55 91 -84 164 -78 65 5 95 24 141 88
23 32 47 53 69 60 47 16 90 68 105 129 15 63 35 78 113 87 l60 7 -6 77 c-6 99
-32 151 -94 191 -26 16 -54 29 -63 29 -27 0 -47 29 -76 110 -45 126 -97 186
-183 210 -49 14 -127 11 -180 -5z m195 -44 c56 -25 97 -80 130 -170 35 -99 54
-125 102 -139 82 -25 118 -74 129 -172 l6 -60 -42 0 c-48 0 -95 -21 -107 -47
-4 -10 -17 -45 -28 -78 -20 -55 -25 -61 -74 -85 -38 -19 -62 -40 -86 -76 -38
-56 -69 -74 -127 -74 -56 0 -92 22 -123 74 -32 55 -63 80 -126 101 -44 15 -50
20 -55 51 -3 19 -7 50 -10 69 -8 50 -49 93 -101 106 -34 9 -43 16 -40 28 2 9
8 27 11 41 12 43 54 89 103 114 62 31 77 49 107 130 50 133 83 175 153 196 49
15 135 10 178 -9z"/>
<path d="M351 761 c-15 -27 -14 -63 2 -85 32 -43 81 15 61 72 -12 34 -48 42
-63 13z"/>
<path d="M511 761 c-15 -27 -14 -63 2 -85 32 -43 81 15 61 72 -12 34 -48 42
-63 13z"/>
</g>
</svg>
